<?xml version="1.0" encoding="UTF-8" standalone="no"?>
<!-- Created with Inkscape (http://www.inkscape.org/) -->

<svg
   width="256"
   height="256"
   viewBox="0 0 67.733332 67.733335"
   version="1.1"
   id="svg5"
   inkscape:version="1.1.1 (3bf5ae0d25, 2021-09-20)"
   sodipodi:docname="brenner.svg"
   xmlns:inkscape="http://www.inkscape.org/namespaces/inkscape"
   xmlns:sodipodi="http://sodipodi.sourceforge.net/DTD/sodipodi-0.dtd"
   xmlns="http://www.w3.org/2000/svg"
   xmlns:svg="http://www.w3.org/2000/svg">
  <sodipodi:namedview
     id="namedview7"
     pagecolor="#ffffff"
     bordercolor="#666666"
     borderopacity="1.0"
     inkscape:pageshadow="2"
     inkscape:pageopacity="0.0"
     inkscape:pagecheckerboard="0"
     inkscape:document-units="px"
     showgrid="false"
     units="px"
     inkscape:zoom="2.5620932"
     inkscape:cx="187.93227"
     inkscape:cy="166.46545"
     inkscape:window-width="2560"
     inkscape:window-height="1377"
     inkscape:window-x="1912"
     inkscape:window-y="-8"
     inkscape:window-maximized="1"
     inkscape:current-layer="layer1" />
  <defs
     id="defs2" />
  <g
     inkscape:label="Ebene 1"
     inkscape:groupmode="layer"
     id="layer1">
    <path
       id="path850"
       style="fill:none;stroke:#000000;stroke-width:5.00001;stroke-linecap:round;stroke-linejoin:round;stroke-miterlimit:4;stroke-dasharray:none;stroke-opacity:1;paint-order:fill markers stroke"
       d="M 65.257812 85.515625 C 60.322819 85.515625 56.349609 89.488835 56.349609 94.423828 L 56.349609 137.25195 A 55.808705 55.609527 0 0 0 21.621094 179.14453 A 55.808705 55.609527 0 0 0 65.517578 243.58789 L 69.744141 244.26953 A 55.808705 55.609527 0 0 0 131.78711 196.89648 A 55.808705 55.609527 0 0 0 123.94531 159.74023 L 229.91992 159.74023 C 234.85491 159.74023 238.82812 155.76702 238.82812 150.83203 L 238.82812 94.423828 C 238.82813 89.488835 234.85491 85.515625 229.91992 85.515625 L 65.257812 85.515625 z "
       transform="scale(0.26458333)" />
  </g>
</svg>
